<svg fill="#000" xmlns="http://www.w3.org/2000/svg" viewBox="0 0 50 50" width="28" height="28"><path d="M40.783203 7.2714844A2.0002 2.0002.0 0 0 39.386719 7.8867188L25.050781 22.222656 10.714844 7.8867188A2.0002 2.0002.0 0 0 9.2792969 7.2792969 2.0002 2.0002.0 0 0 7.8867188 10.714844L22.222656 25.050781 7.8867188 39.386719A2.0002 2.0002.0 1 0 10.714844 42.214844L25.050781 27.878906 39.386719 42.214844a2.0002 2.0002.0 1 0 2.828125-2.828125L27.878906 25.050781 42.214844 10.714844A2.0002 2.0002.0 0 0 40.783203 7.2714844z"/></svg>