<svg width="21" height="22" viewBox="0 0 21 22" fill="none" xmlns="http://www.w3.org/2000/svg"><path d="M20 13.25l-7 3" stroke="#28acb5" stroke-width="2" stroke-linecap="round" stroke-linejoin="round"/><path d="M9 17.25l-7 3" stroke="#28acb5" stroke-width="2" stroke-linecap="round" stroke-linejoin="round"/><path d="M4 15.25C6 12.355 7 10.355 7 9.25 7 8.45435 6.68393 7.69129 6.12132 7.12868 5.55871 6.56607 4.79565 6.25 4 6.25 3.20435 6.25 2.44129 6.56607 1.87868 7.12868 1.31607 7.69129 1 8.45435 1 9.25 1 10.355 2 12.355 4 15.25z" stroke="#28acb5" stroke-width="2" stroke-linejoin="round"/><path d="M16 10.25C18 7.355 19 5.355 19 4.25 19 3.45435 18.6839 2.69129 18.1213 2.12868 17.5587 1.56607 16.7956 1.25 16 1.25 15.2044 1.25 14.4413 1.56607 13.8787 2.12868 13.3161 2.69129 13 3.45435 13 4.25 13 5.355 14 7.355 16 10.25z" stroke="#28acb5" stroke-width="2" stroke-linejoin="round"/></svg>