<svg width="24" height="24" viewBox="0 0 24 24" fill="none" xmlns="http://www.w3.org/2000/svg"><path d="M21.8055 10.0415H21V10H12v4H17.6515C16.827 16.3285 14.6115 18 12 18 8.6865 18 6 15.3135 6 12 6 8.6865 8.6865 6 12 6 13.5295 6 14.921 6.577 15.9805 7.5195L18.809 4.691C17.023 3.0265 14.634 2 12 2 6.4775 2 2 6.4775 2 12 2 17.5225 6.4775 22 12 22 17.5225 22 22 17.5225 22 12 22 11.3295 21.931 10.675 21.8055 10.0415z" fill="#ffc107"/><path d="M3.15295 7.3455 6.43845 9.755C7.32745 7.554 9.48045 6 12 6 13.5295 6 14.921 6.577 15.9805 7.5195L18.809 4.691C17.023 3.0265 14.634 2 12 2 8.15895 2 4.82795 4.1685 3.15295 7.3455z" fill="#ff3d00"/><path d="M12 22C14.583 22 16.93 21.0115 18.7045 19.404L15.6095 16.785C14.5718 17.5742 13.3038 18.001 12 18 9.39903 18 7.19053 16.3415 6.35853 14.027L3.09753 16.5395C4.75253 19.778 8.11353 22 12 22z" fill="#4caf50"/><path d="M21.8055 10.0415H21V10H12v4H17.6515C17.2571 15.1082 16.5467 16.0766 15.608 16.7855L15.6095 16.7845 18.7045 19.4035C18.4855 19.6025 22 17 22 12 22 11.3295 21.931 10.675 21.8055 10.0415z" fill="#1976d2"/></svg>