<svg width="20" height="18" viewBox="0 0 20 18" fill="none" xmlns="http://www.w3.org/2000/svg"><path d="M3.75855 16.8976C3.72603 17.0296 3.72544 17.1669 3.75684 17.2991 3.78823 17.4313 3.85079 17.5551 3.93982 17.6612 4.02886 17.7672 4.14206 17.8528 4.27094 17.9115 4.39982 17.9702 4.54104 18.0004 4.68401 18 4.87151 18 5.05482 17.9474 5.21081 17.8488L10.3792 14.5821 15.5475 17.8488C15.7092 17.9506 15.8999 18.003 16.0939 17.9989 16.288 17.9949 16.476 17.9346 16.6328 17.8262 16.7897 17.7178 16.9077 17.5665 16.9711 17.3926 17.0345 17.2187 17.0402 17.0306 16.9875 16.8535L15.2514 11.0941 19.5569 7.42064C19.6948 7.30292 19.7933 7.14946 19.8402 6.97924 19.8871 6.80902 19.8803 6.62951 19.8207 6.4629 19.7611 6.29629 19.6513 6.1499 19.5049 6.04182 19.3585 5.93374 19.1819 5.86872 18.9969 5.85479L13.5856 5.44623 11.2439.531818C11.1693.373535 11.048.239097 10.8946.144728 10.7413.0503601 10.5623 952817e-10 10.3795 135327e-12 10.1966-950111e-10 10.0177.0499836 9.86417.144192 9.71068.238401 9.58922.372713 9.51446.530919L7.1728 5.44623 1.76144 5.85389C1.57963 5.86755 1.40581 5.93058 1.26079 6.03543 1.11577 6.14029 1.00568 6.28254.943703 6.44516.88172 6.60778.870467 6.78389.911289 6.95242.952111 7.12094 1.04328 7.27475 1.17389 7.39544L5.1738 11.0914 3.75855 16.8976zM10.3792 3.08757 12.3174 7.15606 12.8756 7.19836H12.8765L16.6467 7.48183 13.5419 10.1312 13.5409 10.133 13.1015 10.5073 13.2638 11.0446V11.0473L14.4531 14.9934 10.3792 12.4187V3.08757z" fill="#fff"/></svg>