<svg width="20" height="20" viewBox="0 0 20 20" fill="none" xmlns="http://www.w3.org/2000/svg"><path d="M19.1373 8.55508 18.4724 1.53379C18.4387 1.16992 18.149.882422 17.7851.846484L10.7638.181641H10.7548C10.683.181641 10.6268.204102 10.5841.246777L.0656856 10.7652C.0448635 10.786.028344 10.8107.0170728 10.8379.00580153 10.865.0 10.8942.0 10.9236.0 10.953.00580153 10.9821.0170728 11.0093.028344 11.0365.0448635 11.0612.0656856 11.0819L8.23697 19.2532C8.27965 19.2959 8.3358 19.3184 8.39645 19.3184 8.45709 19.3184 8.51324 19.2959 8.55592 19.2532L19.0744 8.73477C19.1193 8.6876 19.1418 8.62246 19.1373 8.55508zM8.3942 16.9981 2.32076 10.9247 11.2984 1.94707 16.8462 2.47266 17.3718 8.02051 8.3942 16.9981zM13.3423 4C12.253 4 11.3658 4.88721 11.3658 5.97656 11.3658 7.06592 12.253 7.95312 13.3423 7.95312 14.4317 7.95312 15.3189 7.06592 15.3189 5.97656 15.3189 4.88721 14.4317 4 13.3423 4zm0 2.69531C12.9448 6.69531 12.6236 6.37412 12.6236 5.97656 12.6236 5.579 12.9448 5.25781 13.3423 5.25781 13.7399 5.25781 14.0611 5.579 14.0611 5.97656 14.0611 6.37412 13.7399 6.69531 13.3423 6.69531z" fill="#28acb5"/></svg>