<svg width="19" height="19" viewBox="0 0 19 19" fill="none" xmlns="http://www.w3.org/2000/svg"><path d="M1.46195 17.268C1.92583 17.7325 2.47692 18.1008 3.08357 18.3517 3.69022 18.6026 4.34047 18.7311 4.99695 18.73 5.65358 18.7311 6.30397 18.6025 6.91078 18.3516 7.51759 18.1008 8.06886 17.7325 8.53295 17.268L11.361 14.439 9.94695 13.025 7.11895 15.854C6.55542 16.415 5.79262 16.7299 4.99745 16.7299 4.20228 16.7299 3.43948 16.415 2.87595 15.854 2.31446 15.2907 1.99916 14.5278 1.99916 13.7325 1.99916 12.9371 2.31446 12.1742 2.87595 11.611L5.70495 8.78295 4.29095 7.36895 1.46195 10.197C.525758 11.1354.0 12.4069.0 13.7325.0 15.058.525758 16.3295 1.46195 17.268zM17.018 8.78295C17.9537 7.84424 18.4791 6.57287 18.4791 5.24745 18.4791 3.92203 17.9537 2.65067 17.018 1.71195 16.0795.775758 14.808.25 13.4825.25 12.1569.25 10.8854.775758 9.94695 1.71195L7.11895 4.54095 8.53295 5.95495 11.361 3.12595C11.9245 2.56494 12.6873 2.24998 13.4825 2.24998 14.2776 2.24998 15.0404 2.56494 15.604 3.12595 16.1654 3.68922 16.4807 4.45212 16.4807 5.24745 16.4807 6.04278 16.1654 6.80568 15.604 7.36895L12.775 10.197 14.189 11.611 17.018 8.78295z" fill="#28acb5"/><path d="M5.70357 14.4399 4.28857 13.0259 12.7756 4.53995 14.1896 5.95495 5.70357 14.4399z" fill="#28acb5"/></svg>