<svg width="57" height="49" viewBox="0 0 57 49" fill="none" xmlns="http://www.w3.org/2000/svg"><rect x="9.82062" y="3.48657" width="34.6539" height="34.6539" rx="5" transform="rotate(16.4627 9.82062 3.48657)" fill="#28acb5"/><rect x="32" width="34.6539" height="34.6539" rx="5" transform="rotate(43.9617 32 0)" fill="#11888f"/><path d="M36.5385 20.5333H28.4615C28.1555 20.5333 27.862 20.4139 27.6456 20.2014 27.4293 19.9888 27.3077 19.7006 27.3077 19.4V16.5667C27.3077 16.4164 27.3685 16.2722 27.4767 16.166 27.5849 16.0597 27.7316 16 27.8846 16 28.0376 16 28.1844 16.0597 28.2926 16.166 28.4008 16.2722 28.4615 16.4164 28.4615 16.5667V18.2667H29.6154V17.1333C29.6154 16.8328 29.737 16.5445 29.9533 16.3319 30.1697 16.1194 30.4632 16 30.7692 16 31.0752 16 31.3687 16.1194 31.5851 16.3319 31.8015 16.5445 31.9231 16.8328 31.9231 17.1333V18.2667H33.0769V17.1333C33.0769 16.8328 33.1985 16.5445 33.4149 16.3319 33.6313 16.1194 33.9248 16 34.2308 16 34.5368 16 34.8303 16.1194 35.0467 16.3319 35.263 16.5445 35.3846 16.8328 35.3846 17.1333V18.2667H36.5385V16.5667C36.5385 16.4164 36.5992 16.2722 36.7074 16.166 36.8156 16.0597 36.9624 16 37.1154 16 37.2684 16 37.4151 16.0597 37.5233 16.166 37.6315 16.2722 37.6923 16.4164 37.6923 16.5667V19.4C37.6923 19.7006 37.5707 19.9888 37.3544 20.2014 37.138 20.4139 36.8445 20.5333 36.5385 20.5333zM40 32.4333C40 32.5836 39.9392 32.7278 39.831 32.834 39.7228 32.9403 39.5761 33 39.4231 33H25.5769C25.4239 33 25.2772 32.9403 25.169 32.834 25.0608 32.7278 25 32.5836 25 32.4333 25 32.283 25.0608 32.1389 25.169 32.0326 25.2772 31.9264 25.4239 31.8667 25.5769 31.8667H26.1538C26.4599 31.8667 26.7534 31.7473 26.9697 31.5347 27.1861 31.3222 27.3077 31.0339 27.3077 30.7333 27.3077 30.7333 28.4615 23.9333 28.4615 22.8 28.4615 22.4994 28.5831 22.2112 28.7995 21.9986 29.0159 21.7861 29.3094 21.6667 29.6154 21.6667H35.3846C35.6906 21.6667 35.9841 21.7861 36.2005 21.9986 36.4169 22.2112 36.5385 22.4994 36.5385 22.8 36.5385 23.9333 37.6923 30.7333 37.6923 30.7333 37.6923 31.0339 37.8139 31.3222 38.0303 31.5347 38.2466 31.7473 38.5401 31.8667 38.8462 31.8667H39.4231C39.5741 31.8666 39.7191 31.9248 39.827 32.0286 39.9349 32.1324 39.997 32.2737 40 32.422V32.4333zM34.2308 27.9C34.2308 27.4491 34.0484 27.0167 33.7238 26.6979 33.3993 26.3791 32.959 26.2 32.5 26.2 32.041 26.2 31.6007 26.3791 31.2762 26.6979 30.9516 27.0167 30.7692 27.4491 30.7692 27.9V31.8667H34.2308V27.9z" fill="#fff"/></svg>