<svg width="19" height="20" viewBox="0 0 19 20" fill="none" xmlns="http://www.w3.org/2000/svg"><path d="M14.6917 19.455C14.5068 19.4545 14.3225 19.4338 14.1418 19.3932 10.7031 18.6657 7.53517 16.9601 5.00256 14.4726 2.524 11.9797.804981 8.80564.0534965 5.3345-.035113 4.90189-.0133647 4.45324.116649 4.03172.246663 3.61019.480566 3.22998.795856 2.92765L2.99544.762617C3.10779.653964 3.24128.57076 3.3872.518435 3.53311.466111 3.68818.445841 3.84228.458949 4.00206.475996 4.15625.528631 4.294.613155 4.43176.697679 4.54973.812038 4.63963.948191L7.38911 5.10394C7.49222 5.26519 7.54199 5.45602 7.5311 5.64836 7.52021 5.84071 7.44924 6.02439 7.32862 6.1724L5.94838 7.85944C6.49809 9.1036 7.27657 10.2281 8.24145 11.1717 9.20008 12.1495 10.3332 12.9302 11.5793 13.4717L13.2895 12.0827C13.4331 11.9666 13.6079 11.8979 13.7906 11.8859 13.9733 11.8738 14.1553 11.9189 14.3123 12.0152L18.464 14.7594C18.6065 14.8464 18.7279 14.9653 18.8191 15.107 18.9102 15.2488 18.9689 15.4099 18.9906 15.5781 19.0123 15.7463 18.9964 15.9174 18.9443 16.0785 18.8921 16.2396 18.805 16.3866 18.6895 16.5083L16.5449 18.679C16.3013 18.9269 16.0121 19.1231 15.6941 19.2563 15.376 19.3895 15.0354 19.457 14.6917 19.455zM3.7543 1.5724 1.55471 3.73743C1.37734 3.90645 1.24605 4.11976 1.17374 4.3564 1.10142 4.59304 1.09059 4.84485 1.14229 5.08707 1.84106 8.34426 3.4473 11.3248 5.76692 13.6685 8.15027 16.0087 11.1315 17.613 14.3673 18.2966 14.6122 18.349 14.866 18.3384 15.106 18.2657 15.3459 18.1931 15.5644 18.0607 15.742 17.8805L17.8866 15.7098 13.8779 13.0611 12.0412 14.557C11.9709 14.6139 11.8881 14.6524 11.7999 14.669 11.7117 14.6857 11.6209 14.68 11.5353 14.6526 10.0103 14.078 8.62828 13.1659 7.48809 11.9814 6.30876 10.8552 5.39333 9.47113 4.8101 7.93254 4.78542 7.8394 4.7846 7.74133 4.80772 7.64777 4.83083 7.5542 4.8771 7.4683 4.94207 7.39831L6.42679 5.58193 3.7543 1.5724z" fill="#28acb5"/></svg>