<svg width="18" height="23" viewBox="0 0 18 23" fill="none" xmlns="http://www.w3.org/2000/svg"><path d="M9 12.25C10.6569 12.25 12 10.9069 12 9.25 12 7.59315 10.6569 6.25 9 6.25 7.34315 6.25 6 7.59315 6 9.25 6 10.9069 7.34315 12.25 9 12.25z" stroke="#28acb5" stroke-width="2" stroke-linecap="round" stroke-linejoin="round"/><path d="M9 1.25C6.87827 1.25 4.84344 2.09285 3.34315 3.59315 1.84285 5.09344 1 7.12827 1 9.25 1 11.142 1.402 12.38 2.5 13.75L9 21.25l6.5-7.5C16.598 12.38 17 11.142 17 9.25 17 7.12827 16.1571 5.09344 14.6569 3.59315 13.1566 2.09285 11.1217 1.25 9 1.25v0z" stroke="#28acb5" stroke-width="2" stroke-linecap="round" stroke-linejoin="round"/></svg>