<svg width="19" height="21" viewBox="0 0 19 21" fill="none" xmlns="http://www.w3.org/2000/svg"><path d="M18.3104 3.18222H14.5551V.698877C14.5551.513523 14.4815.335761 14.3504.204696 14.2193.0736314 14.0416.0 13.8562.0H6.05674C5.87139.0 5.69362.0736314 5.56256.204696 5.4315.335761 5.35786.513523 5.35786.698877V3.18222H1.60256C1.41721 3.18222 1.23945 3.25585 1.10838 3.38692.977318 3.51798.903687 3.69574.903687 3.8811.903687 4.06645.977318 4.24421 1.10838 4.37528 1.23945 4.50634 1.41721 4.57997 1.60256 4.57997H2.50179V17.4719C2.50302 18.1495 2.77306 18.7989 3.25262 19.2776 3.73218 19.7563 4.38209 20.0252 5.05968 20.0252H14.8905C15.5617 20.0154 16.202 19.7422 16.6736 19.2646 17.1451 18.7869 17.41 18.1431 17.4112 17.4719V4.57997H18.2917C18.4771 4.58245 18.6558 4.51118 18.7887 4.38187 18.9215 4.25255 18.9975 4.07577 18.9999 3.89042 19.0024 3.70506 18.9312 3.52632 18.8018 3.39351 18.6725 3.26069 18.4957 3.18469 18.3104 3.18222zM6.75562 1.39775H13.1573V3.18222H6.75562V1.39775zM16.0134 17.4719C16.0122 17.7788 15.8894 18.0727 15.672 18.2893 15.4545 18.5058 15.1602 18.6274 14.8533 18.6274H5.04104C4.7374 18.6225 4.44777 18.4988 4.23435 18.2828 4.02093 18.0667 3.90072 17.7756 3.89954 17.4719V4.57997H16.0134V17.4719z" fill="#c92373"/><path d="M8.09281 7.16116C7.90745 7.16116 7.72969 7.23479 7.59863 7.36586 7.46756 7.49692 7.39393 7.67469 7.39393 7.86004V15.3567C7.39393 15.542 7.46756 15.7198 7.59863 15.8508 7.72969 15.9819 7.90745 16.0555 8.09281 16.0555 8.27816 16.0555 8.45592 15.9819 8.58699 15.8508 8.71805 15.7198 8.79168 15.542 8.79168 15.3567V7.86004C8.79168 7.67469 8.71805 7.49692 8.58699 7.36586 8.45592 7.23479 8.27816 7.16116 8.09281 7.16116v0z" fill="#c92373"/><path d="M11.8201 7.16116C11.6348 7.16116 11.457 7.23479 11.326 7.36586 11.1949 7.49692 11.1213 7.67469 11.1213 7.86004V15.3567C11.1213 15.542 11.1949 15.7198 11.326 15.8508 11.457 15.9819 11.6348 16.0555 11.8201 16.0555 12.0055 16.0555 12.1833 15.9819 12.3143 15.8508 12.4454 15.7198 12.519 15.542 12.519 15.3567V7.86004C12.519 7.67469 12.4454 7.49692 12.3143 7.36586 12.1833 7.23479 12.0055 7.16116 11.8201 7.16116v0z" fill="#c92373"/></svg>