<svg width="18" height="17" viewBox="0 0 18 17" fill="none" xmlns="http://www.w3.org/2000/svg"><path d="M14.7667 16.9998C14.291 17.005 13.8205 16.9055 13.392 16.7091 12.9634 16.5127 12.5885 16.2246 12.2965 15.8675 12.0046 15.5103 11.8035 15.0938 11.709 14.6504 11.6145 14.2071 11.6291 13.749 11.7518 13.3119L6.1729 10.28C5.70228 10.6899 5.11053 10.9525 4.47777 11.0321 3.84501 11.1117 3.20182 11.0044 2.63527 10.7249 2.06873 10.4454 1.60621 10.0071 1.31034 9.46935 1.01446 8.93159.899532 8.32038.981104 7.71846 1.06268 7.11654 1.33681 6.55299 1.76639 6.10412 2.19597 5.65526 2.76024 5.34275 3.3828 5.20893 4.00536 5.07511 4.65613 5.12643 5.247 5.35594 5.83787 5.58546 6.34029 5.98208 6.68623 6.4921L11.7509 3.73892C11.6854 3.5035 11.6507 3.26129 11.6475 3.01778 11.6413 2.3299 11.8846 1.66099 12.3364 1.12368 12.7882.586384 13.4209.213511 14.1279.0678501 14.835-.077811 15.5732.0126368 16.2184.323964 16.8635.635292 17.3761 1.14848 17.6699 1.77713 17.9637 2.40577 18.0207 3.11147 17.8313 3.77539 17.642 4.43932 17.2178 5.02092 16.6302 5.42227 16.0426 5.82362 15.3275 6.0202 14.6054 5.97891 13.8832 5.93763 13.198 5.66099 12.6653 5.19559L7.18441 8.17418C7.17817 8.39451 7.14609 8.61229 7.08727 8.82498L12.6662 11.8561C13.0396 11.5303 13.4909 11.296 13.9811 11.1736 14.4713 11.0512 14.9855 11.0444 15.4791 11.1538 15.9727 11.2632 16.4307 11.4854 16.8135 11.8012 17.1963 12.117 17.4923 12.5169 17.6757 12.9661 17.8592 13.4153 17.9246 13.9003 17.8662 14.379 17.8079 14.8577 17.6276 15.3157 17.341 15.7131 17.0544 16.1105 16.6701 16.4354 16.2215 16.6597 15.7729 16.8839 15.2735 17.0006 14.7667 16.9998zm0-4.237C14.4122 12.7628 14.0722 12.8967 13.8215 13.1351 13.5708 13.3735 13.4299 13.6968 13.4299 14.0339 13.4299 14.371 13.5708 14.6943 13.8215 14.9327 14.0722 15.1711 14.4122 15.305 14.7667 15.305 15.1213 15.305 15.4613 15.1711 15.712 14.9327 15.9627 14.6943 16.1035 14.371 16.1035 14.0339 16.1035 13.6968 15.9627 13.3735 15.712 13.1351 15.4613 12.8967 15.1213 12.7628 14.7667 12.7628zM4.07234 6.83106C3.7178 6.83106 3.37778 6.96498 3.12709 7.20336 2.87639 7.44173 2.73555 7.76504 2.73555 8.10215 2.73555 8.43927 2.87639 8.76258 3.12709 9.00095 3.37778 9.23933 3.7178 9.37325 4.07234 9.37325 4.42688 9.37325 4.7669 9.23933 5.0176 9.00095 5.2683 8.76258 5.40914 8.43927 5.40914 8.10215 5.40914 7.76504 5.2683 7.44173 5.0176 7.20336 4.7669 6.96498 4.42688 6.83106 4.07234 6.83106zM14.7667 1.74669C14.5912 1.74669 14.4173 1.77957 14.2552 1.84345 14.093 1.90732 13.9456 2.00095 13.8215 2.11898 13.6973 2.23702 13.5989 2.37714 13.5317 2.53136 13.4645 2.68557 13.4299 2.85086 13.4299 3.01778 13.4299 3.18471 13.4645 3.34999 13.5317 3.50421 13.5989 3.65843 13.6973 3.79855 13.8215 3.91658 13.9456 4.03461 14.093 4.12824 14.2552 4.19212 14.4173 4.256 14.5912 4.28888 14.7667 4.28888 15.1213 4.28888 15.4613 4.15496 15.712 3.91658 15.9627 3.67821 16.1035 3.3549 16.1035 3.01778 16.1035 2.68067 15.9627 2.35736 15.712 2.11898 15.4613 1.88061 15.1213 1.74669 14.7667 1.74669z" fill="#fff"/></svg>